<?xml version="1.0" encoding="iso-8859-1"?>
<!-- Generator: Adobe Illustrator 19.0.0, SVG Export Plug-In . SVG Version: 6.00 Build 0)  -->
<svg version="1.1" id="Capa_1" xmlns="http://www.w3.org/2000/svg" xmlns:xlink="http://www.w3.org/1999/xlink" x="0px" y="0px"
	 viewBox="0 0 512 512" style="enable-background:new 0 0 512 512;" xml:space="preserve">
<g>
	<path style="fill:#E7ECED;" d="M352,152c80,0,72,88,72,88v224h-80V288c0,0,0-32-32-32s-32,32-32,32v176h-80V176v-48h80v72
		C280,200,288,152,352,152z"/>
	<rect x="88" y="176" style="fill:#E7ECED;" width="80" height="288"/>
	<circle style="fill:#E7ECED;" cx="128" cy="104" r="40"/>
</g>
<path style="fill:#0071BC;" d="M504,80v352c0,39.76-32.24,72-72,72H80c-39.76,0-72-32.24-72-72V80C8,40.24,40.24,8,80,8h352
	C471.76,8,504,40.24,504,80z M424,240c0,0,8-88-72-88c-64,0-72,48-72,48v-72h-80v48v288h80V288c0,0,0-32,32-32s32,32,32,32v176h80
	V240z M168,464V176H88v288H168z M168,104c0-22.08-17.92-40-40-40s-40,17.92-40,40s17.92,40,40,40S168,126.08,168,104z"/>
<path d="M432,512H80c-44.112,0-80-35.888-80-80V80C0,35.888,35.888,0,80,0h352c44.112,0,80,35.888,80,80v352
	C512,476.112,476.112,512,432,512z M80,16c-35.288,0-64,28.712-64,64v352c0,35.288,28.712,64,64,64h352c35.288,0,64-28.712,64-64V80
	c0-35.288-28.712-64-64-64H80z"/>
<path d="M48,96H32c0-63.272,55.44-64,56-64l0.04,16C83.944,48.04,48,49.744,48,96z"/>
<path d="M168,472H88c-4.416,0-8-3.584-8-8V176c0-4.416,3.584-8,8-8h80c4.416,0,8,3.584,8,8v288C176,468.416,172.416,472,168,472z
	 M96,456h64V184H96V456z"/>
<path d="M128,152c-26.472,0-48-21.528-48-48s21.528-48,48-48s48,21.528,48,48S154.472,152,128,152z M128,72
	c-17.648,0-32,14.352-32,32s14.352,32,32,32s32-14.352,32-32S145.648,72,128,72z"/>
<path d="M424,472h-80c-4.416,0-8-3.584-8-8V288.032c-0.048-4.048-1.44-24.032-24-24.032c-22.584,0-23.952,20.024-24,24.04V464
	c0,4.416-3.584,8-8,8h-80c-4.416,0-8-3.584-8-8V128c0-4.416,3.584-8,8-8h80c4.416,0,8,3.584,8,8v40.656
	C299.552,155.936,319.152,144,352,144c24.576,0,44.08,7.712,57.968,22.912c25.816,28.272,22.168,71.968,22,73.808L432,464
	C432,468.416,428.424,472,424,472z M352,456h64V240c0.064-1.096,3.16-39.368-17.904-62.352C387.368,165.936,371.856,160,352,160
	c-56.056,0-63.816,39.672-64.12,41.36c-0.728,4.08-4.528,6.904-8.584,6.584c-4.128-0.368-7.296-3.8-7.296-7.944v-64h-64v320h64V288
	c0-13.832,8.36-40,40-40s40,26.168,40,40V456z"/>
<g>
</g>
<g>
</g>
<g>
</g>
<g>
</g>
<g>
</g>
<g>
</g>
<g>
</g>
<g>
</g>
<g>
</g>
<g>
</g>
<g>
</g>
<g>
</g>
<g>
</g>
<g>
</g>
<g>
</g>
</svg>
