<svg id="Layer_1" viewBox="0 0 512 512" xmlns="http://www.w3.org/2000/svg" data-name="Layer 1"><path d="m22.057 300.763c0-48.529 26.589-91.644 67.719-118.885h160.923c40.167 26.589 66.416 68.315 67.663 115.427-47.509 12.954-71.348 66.161-49.748 110.155-84.416 65.537-246.557 29.99-246.557-106.696zm185.981-20.92c0 3.317-2.665 5.981-5.981 5.981s-6.01-2.665-6.01-5.981c0-19.247-28.29-28.885-44.391-14.939-4.479 3.855-7.257 9.156-7.257 14.939 0 34.866 68.4 7.455 68.4 59.131 0 19.928-17.008 34.81-36.567 37.248v13.975c0 3.288-2.693 5.981-6.01 5.981s-5.981-2.693-5.981-5.981v-13.975c-19.587-2.438-36.567-17.32-36.567-37.248 0-3.316 2.693-6.009 5.981-6.009 3.317 0 6.01 2.693 6.01 6.009 0 15.194 14.967 25.625 30.557 25.625s30.558-10.432 30.558-25.625c0-39.543-68.372-10.97-68.372-59.131 0-17.518 14.712-30.671 31.833-33.109v-14.003c0-3.317 2.665-6.01 5.981-6.01s6.01 2.693 6.01 6.01v14.003c17.121 2.438 31.805 15.591 31.805 33.109z" fill="#2e3760" fill-rule="evenodd"/><path d="m260.62 83.26-35.093 62.617h-110.608l-35.064-62.617c13.635-14.145 46.602-14.145 60.236 0 13.663-14.145 46.602-14.145 60.265 0 13.663-14.145 46.602-14.145 60.265 0z" fill="#2e3760" fill-rule="evenodd"/><path d="m71.663 169.887c-3.317 0-6.01-2.693-6.01-6.01s2.693-5.981 6.01-5.981h197.15c3.316 0 6.009 2.665 6.009 5.981s-2.693 6.01-6.009 6.01z" fill="#2e3760"/><g fill-rule="evenodd"><path d="m413.011 72.885c42.491 0 76.932 34.441 76.932 76.932s-34.441 76.932-76.932 76.932-76.932-34.441-76.932-76.932 34.441-76.932 76.932-76.932zm33.023 35.433c2.324-2.353 6.123-2.353 8.476 0 2.324 2.324 2.324 6.123 0 8.476l-74.523 74.523c-2.353 2.325-6.151 2.325-8.476 0-2.353-2.353-2.353-6.151 0-8.504l74.523-74.494zm-57.798-1.758c16.384 0 24.661 19.928 13.039 31.521-11.594 11.622-31.521 3.345-31.521-13.068 0-10.205 8.277-18.454 18.482-18.454zm4.564 13.89c-4.053-4.082-11.055-1.191-11.055 4.564s7.002 8.646 11.055 4.592c2.523-2.523 2.523-6.633 0-9.156zm44.986 35.66c16.413 0 24.69 19.927 13.068 31.55-11.622 11.622-31.55 3.345-31.55-13.068 0-10.205 8.277-18.482 18.482-18.482zm4.592 13.89c-4.082-4.053-11.055-1.162-11.055 4.592s6.973 8.646 11.055 4.563c2.523-2.523 2.523-6.633 0-9.156z" fill="#ff695a"/><path d="m339.027 306.545c36.68 0 66.416 29.735 66.416 66.416s-29.735 66.387-66.416 66.387-66.387-29.735-66.387-66.387 29.707-66.416 66.387-66.416zm22.904 49.606c0 3.316-2.693 6.009-6.01 6.009-3.288 0-5.981-2.693-5.981-6.009 0-7.767-12.189-11.679-18.964-5.811-1.758 1.531-2.863 3.572-2.863 5.811 0 14.825 36.34 1.729 36.34 31.436 0 11.14-8.731 19.814-19.417 22.139v5.074c0 3.288-2.693 5.981-6.01 5.981s-6.01-2.693-6.01-5.981v-5.074c-10.687-2.324-19.417-10.999-19.417-22.139 0-3.316 2.693-6.009 6.01-6.009s5.981 2.693 5.981 6.009c0 9.695 14.91 14.57 23.272 7.342 2.211-1.928 3.6-4.535 3.6-7.342 0-17.603-36.34-3.316-36.34-31.436 0-9.865 7.54-17.603 16.895-19.899v-5.131c0-3.317 2.693-6.01 6.01-6.01s6.01 2.693 6.01 6.01v5.131c9.354 2.296 16.895 10.035 16.895 19.899z" fill="#ff695a"/><path d="m359.181 278.029h107.66c6.917 0 12.557-5.669 12.557-12.557v-14.173c0-6.888-5.641-12.558-12.557-12.558h-107.66c-6.917 0-12.586 5.669-12.586 12.558v14.173c0 6.888 5.669 12.557 12.586 12.557zm31.55 153.836h76.11c6.917 0 12.557-5.641 12.557-12.558v-14.145c0-6.917-5.641-12.557-12.557-12.557h-51.902c-3.969 15.449-12.558 29.055-24.208 39.26zm26.334-51.279h49.776c6.917 0 12.557-5.641 12.557-12.558v-14.145c0-6.917-5.641-12.586-12.557-12.586h-56.069c5.357 12.161 7.597 25.625 6.293 39.288zm-12.898-51.279h62.674c6.917 0 12.557-5.641 12.557-12.558v-14.145c0-6.917-5.641-12.586-12.557-12.586h-107.66c-4.167 0-7.852 2.041-10.148 5.159 22.961 2.92 42.803 15.789 55.134 34.129z" fill="#ff695a"/></g></svg>